<svg xmlns="http://www.w3.org/2000/svg" xmlns:xlink="http://www.w3.org/1999/xlink" width="60" zoomAndPan="magnify" viewBox="0 0 45 44.999999" height="60" preserveAspectRatio="xMidYMid meet" version="1.0"><defs><g/></defs><g fill="#ffffff" fill-opacity="1"><g transform="translate(20.236367, 37.77167)"><g/></g></g><g fill="#ffffff" fill-opacity="1"><g transform="translate(18.083615, 37.36237)"><g><path d="M -0.6875 -0.265625 L -0.265625 -0.109375 L -1.421875 2.796875 L -2.09375 2.53125 L -2.171875 -0.625 L -2.125 -0.625 L -3.203125 2.09375 L -3.609375 1.921875 L -2.453125 -0.984375 L -1.765625 -0.703125 L -1.703125 2.453125 L -1.765625 2.453125 Z M -0.6875 -0.265625 "/></g></g></g><g fill="#ffffff" fill-opacity="1"><g transform="translate(14.409041, 35.723439)"><g><path d="M -0.84375 -0.671875 C -0.707031 -0.566406 -0.601562 -0.453125 -0.53125 -0.328125 C -0.457031 -0.210938 -0.421875 -0.0976562 -0.421875 0.015625 C -0.429688 0.140625 -0.476562 0.253906 -0.5625 0.359375 C -0.644531 0.484375 -0.75 0.5625 -0.875 0.59375 C -1 0.632812 -1.128906 0.632812 -1.265625 0.59375 C -1.410156 0.550781 -1.566406 0.484375 -1.734375 0.390625 C -1.960938 0.253906 -2.128906 0.164062 -2.234375 0.125 C -2.335938 0.0820312 -2.40625 0.0859375 -2.4375 0.140625 C -2.507812 0.234375 -2.519531 0.332031 -2.46875 0.4375 C -2.414062 0.539062 -2.320312 0.644531 -2.1875 0.75 C -2.03125 0.863281 -1.890625 0.921875 -1.765625 0.921875 C -1.648438 0.929688 -1.550781 0.878906 -1.46875 0.765625 L -1.109375 1.03125 C -1.203125 1.164062 -1.316406 1.253906 -1.453125 1.296875 C -1.597656 1.335938 -1.753906 1.335938 -1.921875 1.296875 C -2.085938 1.265625 -2.253906 1.1875 -2.421875 1.0625 C -2.566406 0.945312 -2.6875 0.820312 -2.78125 0.6875 C -2.875 0.550781 -2.921875 0.410156 -2.921875 0.265625 C -2.929688 0.128906 -2.882812 -0.0078125 -2.78125 -0.15625 C -2.769531 -0.164062 -2.753906 -0.179688 -2.734375 -0.203125 C -2.710938 -0.234375 -2.695312 -0.265625 -2.6875 -0.296875 L -2.15625 -1.015625 C -2.125 -1.054688 -2.09375 -1.097656 -2.0625 -1.140625 C -2.039062 -1.191406 -2.023438 -1.234375 -2.015625 -1.265625 C -2.003906 -1.296875 -2 -1.328125 -2 -1.359375 C -2 -1.398438 -2 -1.429688 -2 -1.453125 L -1.625 -1.1875 C -1.625 -1.164062 -1.625 -1.140625 -1.625 -1.109375 C -1.632812 -1.085938 -1.640625 -1.050781 -1.640625 -1 C -1.660156 -0.96875 -1.679688 -0.929688 -1.703125 -0.890625 C -1.722656 -0.847656 -1.75 -0.804688 -1.78125 -0.765625 L -1.8125 -0.859375 C -1.726562 -0.910156 -1.632812 -0.929688 -1.53125 -0.921875 C -1.425781 -0.921875 -1.3125 -0.898438 -1.1875 -0.859375 C -1.070312 -0.816406 -0.957031 -0.753906 -0.84375 -0.671875 Z M -1.15625 -0.40625 C -1.257812 -0.488281 -1.367188 -0.546875 -1.484375 -0.578125 C -1.597656 -0.609375 -1.703125 -0.609375 -1.796875 -0.578125 C -1.898438 -0.546875 -1.988281 -0.476562 -2.0625 -0.375 L -2.28125 -0.078125 L -2.28125 -0.25 C -2.1875 -0.21875 -2.082031 -0.171875 -1.96875 -0.109375 C -1.851562 -0.0546875 -1.734375 0 -1.609375 0.0625 C -1.453125 0.164062 -1.316406 0.222656 -1.203125 0.234375 C -1.097656 0.253906 -1.015625 0.21875 -0.953125 0.125 C -0.890625 0.0390625 -0.875 -0.0390625 -0.90625 -0.125 C -0.9375 -0.21875 -1.019531 -0.3125 -1.15625 -0.40625 Z M -1.15625 -0.40625 "/></g></g></g><g fill="#ffffff" fill-opacity="1"><g transform="translate(11.496247, 33.424053)"><g><path d="M -0.734375 -0.9375 C -0.648438 -0.832031 -0.578125 -0.722656 -0.515625 -0.609375 C -0.460938 -0.492188 -0.429688 -0.382812 -0.421875 -0.28125 C -0.410156 -0.175781 -0.414062 -0.078125 -0.4375 0.015625 C -0.46875 0.109375 -0.523438 0.191406 -0.609375 0.265625 C -0.617188 0.265625 -0.625 0.269531 -0.625 0.28125 C -0.632812 0.289062 -0.640625 0.296875 -0.640625 0.296875 L -0.953125 -0.0625 C -0.953125 -0.0703125 -0.945312 -0.0820312 -0.9375 -0.09375 C -0.851562 -0.15625 -0.820312 -0.238281 -0.84375 -0.34375 C -0.875 -0.445312 -0.941406 -0.5625 -1.046875 -0.6875 C -1.109375 -0.757812 -1.171875 -0.820312 -1.234375 -0.875 C -1.296875 -0.925781 -1.359375 -0.957031 -1.421875 -0.96875 C -1.484375 -0.976562 -1.539062 -0.960938 -1.59375 -0.921875 C -1.664062 -0.847656 -1.6875 -0.753906 -1.65625 -0.640625 C -1.625 -0.535156 -1.550781 -0.394531 -1.4375 -0.21875 C -1.394531 -0.125 -1.347656 -0.03125 -1.296875 0.0625 C -1.253906 0.164062 -1.222656 0.265625 -1.203125 0.359375 C -1.191406 0.453125 -1.195312 0.539062 -1.21875 0.625 C -1.25 0.71875 -1.304688 0.804688 -1.390625 0.890625 C -1.492188 0.972656 -1.609375 1.007812 -1.734375 1 C -1.867188 1 -2 0.960938 -2.125 0.890625 C -2.257812 0.816406 -2.382812 0.710938 -2.5 0.578125 C -2.613281 0.453125 -2.695312 0.316406 -2.75 0.171875 C -2.800781 0.0234375 -2.8125 -0.109375 -2.78125 -0.234375 C -2.757812 -0.367188 -2.691406 -0.484375 -2.578125 -0.578125 C -2.578125 -0.578125 -2.570312 -0.578125 -2.5625 -0.578125 C -2.5625 -0.585938 -2.554688 -0.597656 -2.546875 -0.609375 L -2.265625 -0.265625 C -2.273438 -0.253906 -2.28125 -0.242188 -2.28125 -0.234375 C -2.289062 -0.234375 -2.296875 -0.234375 -2.296875 -0.234375 C -2.347656 -0.191406 -2.375 -0.132812 -2.375 -0.0625 C -2.382812 0 -2.375 0.0625 -2.34375 0.125 C -2.320312 0.195312 -2.28125 0.265625 -2.21875 0.328125 C -2.175781 0.390625 -2.117188 0.441406 -2.046875 0.484375 C -1.984375 0.535156 -1.921875 0.566406 -1.859375 0.578125 C -1.796875 0.597656 -1.742188 0.585938 -1.703125 0.546875 C -1.640625 0.503906 -1.609375 0.445312 -1.609375 0.375 C -1.617188 0.3125 -1.640625 0.238281 -1.671875 0.15625 C -1.710938 0.0703125 -1.769531 -0.0195312 -1.84375 -0.125 C -1.882812 -0.226562 -1.929688 -0.328125 -1.984375 -0.421875 C -2.035156 -0.523438 -2.066406 -0.625 -2.078125 -0.71875 C -2.085938 -0.8125 -2.078125 -0.90625 -2.046875 -1 C -2.023438 -1.09375 -1.972656 -1.171875 -1.890625 -1.234375 C -1.796875 -1.316406 -1.703125 -1.363281 -1.609375 -1.375 C -1.515625 -1.394531 -1.414062 -1.382812 -1.3125 -1.34375 C -1.207031 -1.3125 -1.101562 -1.257812 -1 -1.1875 C -0.90625 -1.113281 -0.816406 -1.03125 -0.734375 -0.9375 Z M -0.734375 -0.9375 "/></g></g></g><g fill="#ffffff" fill-opacity="1"><g transform="translate(9.341149, 30.652505)"><g><path d="M -0.15625 -0.265625 L -2.109375 0.859375 L -2.328125 0.46875 L -0.375 -0.65625 Z M -0.15625 -0.265625 "/></g></g></g><g fill="#ffffff" fill-opacity="1"><g transform="translate(8.299072, 28.678219)"><g><path d="M -3.359375 0.5 L -0.28125 -0.71875 L -0.125 -0.3125 L -3.203125 0.90625 Z M -3.359375 0.5 "/></g></g></g><g fill="#ffffff" fill-opacity="1"><g transform="translate(7.543411, 26.541837)"><g/></g></g><g fill="#ffffff" fill-opacity="1"><g transform="translate(7.060691, 24.401892)"><g><path d="M -1.203125 -2.640625 C -1.066406 -2.640625 -0.929688 -2.613281 -0.796875 -2.5625 C -0.660156 -2.519531 -0.535156 -2.453125 -0.421875 -2.359375 C -0.304688 -2.273438 -0.207031 -2.15625 -0.125 -2 C -0.0507812 -1.851562 -0.0078125 -1.679688 0 -1.484375 C 0.0078125 -1.273438 -0.0195312 -1.09375 -0.09375 -0.9375 C -0.164062 -0.78125 -0.273438 -0.644531 -0.421875 -0.53125 C -0.566406 -0.414062 -0.734375 -0.320312 -0.921875 -0.25 C -1.117188 -0.1875 -1.332031 -0.15625 -1.5625 -0.15625 C -1.789062 -0.144531 -2.003906 -0.164062 -2.203125 -0.21875 C -2.410156 -0.269531 -2.582031 -0.347656 -2.71875 -0.453125 C -2.863281 -0.554688 -2.976562 -0.679688 -3.0625 -0.828125 C -3.144531 -0.984375 -3.191406 -1.164062 -3.203125 -1.375 C -3.210938 -1.601562 -3.175781 -1.800781 -3.09375 -1.96875 C -3.007812 -2.132812 -2.898438 -2.265625 -2.765625 -2.359375 C -2.628906 -2.460938 -2.488281 -2.53125 -2.34375 -2.5625 C -2.257812 -2.59375 -2.179688 -2.609375 -2.109375 -2.609375 L -2.09375 -2.140625 C -2.132812 -2.140625 -2.175781 -2.132812 -2.21875 -2.125 C -2.332031 -2.101562 -2.429688 -2.0625 -2.515625 -2 C -2.609375 -1.9375 -2.679688 -1.851562 -2.734375 -1.75 C -2.796875 -1.644531 -2.820312 -1.523438 -2.8125 -1.390625 C -2.8125 -1.234375 -2.765625 -1.09375 -2.671875 -0.96875 C -2.578125 -0.851562 -2.4375 -0.765625 -2.25 -0.703125 C -2.070312 -0.640625 -1.847656 -0.613281 -1.578125 -0.625 C -1.304688 -0.632812 -1.082031 -0.675781 -0.90625 -0.75 C -0.738281 -0.820312 -0.609375 -0.921875 -0.515625 -1.046875 C -0.429688 -1.171875 -0.390625 -1.3125 -0.390625 -1.46875 C -0.390625 -1.582031 -0.410156 -1.679688 -0.453125 -1.765625 C -0.503906 -1.859375 -0.566406 -1.9375 -0.640625 -2 C -0.710938 -2.0625 -0.796875 -2.101562 -0.890625 -2.125 C -0.992188 -2.15625 -1.09375 -2.171875 -1.1875 -2.171875 Z M 0.140625 -1.671875 C 0.128906 -1.722656 0.132812 -1.769531 0.15625 -1.8125 C 0.1875 -1.863281 0.222656 -1.90625 0.265625 -1.9375 C 0.304688 -1.96875 0.367188 -1.984375 0.453125 -1.984375 C 0.535156 -1.984375 0.601562 -1.960938 0.65625 -1.921875 C 0.71875 -1.878906 0.765625 -1.816406 0.796875 -1.734375 C 0.828125 -1.648438 0.84375 -1.566406 0.84375 -1.484375 C 0.84375 -1.398438 0.832031 -1.316406 0.8125 -1.234375 C 0.800781 -1.160156 0.785156 -1.109375 0.765625 -1.078125 L 0.59375 -1.171875 C 0.601562 -1.191406 0.613281 -1.226562 0.625 -1.28125 C 0.644531 -1.34375 0.65625 -1.410156 0.65625 -1.484375 C 0.65625 -1.566406 0.632812 -1.632812 0.59375 -1.6875 C 0.550781 -1.738281 0.5 -1.765625 0.4375 -1.765625 C 0.382812 -1.765625 0.347656 -1.75 0.328125 -1.71875 C 0.304688 -1.695312 0.296875 -1.660156 0.296875 -1.609375 C 0.296875 -1.578125 0.300781 -1.539062 0.3125 -1.5 C 0.320312 -1.46875 0.34375 -1.441406 0.375 -1.421875 L 0.3125 -1.234375 L -0.046875 -1.375 L -0.046875 -1.578125 L 0.265625 -1.46875 L 0.265625 -1.4375 C 0.234375 -1.445312 0.203125 -1.472656 0.171875 -1.515625 C 0.148438 -1.554688 0.140625 -1.609375 0.140625 -1.671875 Z M 0.140625 -1.671875 "/></g></g></g><g fill="#ffffff" fill-opacity="1"><g transform="translate(7.083516, 20.441797)"><g><path d="M 0.28125 -1.03125 C 0.238281 -0.875 0.175781 -0.734375 0.09375 -0.609375 C 0.0195312 -0.492188 -0.0703125 -0.414062 -0.1875 -0.375 C -0.300781 -0.34375 -0.425781 -0.34375 -0.5625 -0.375 C -0.71875 -0.40625 -0.832031 -0.46875 -0.90625 -0.5625 C -0.988281 -0.65625 -1.039062 -0.773438 -1.0625 -0.921875 C -1.082031 -1.078125 -1.082031 -1.238281 -1.0625 -1.40625 C -1.03125 -1.6875 -1.015625 -1.878906 -1.015625 -1.984375 C -1.015625 -2.097656 -1.046875 -2.160156 -1.109375 -2.171875 C -1.210938 -2.191406 -1.300781 -2.160156 -1.375 -2.078125 C -1.457031 -2.003906 -1.519531 -1.878906 -1.5625 -1.703125 C -1.601562 -1.515625 -1.601562 -1.363281 -1.5625 -1.25 C -1.519531 -1.132812 -1.429688 -1.0625 -1.296875 -1.03125 L -1.390625 -0.59375 C -1.546875 -0.632812 -1.675781 -0.707031 -1.78125 -0.8125 C -1.882812 -0.925781 -1.945312 -1.066406 -1.96875 -1.234375 C -2 -1.398438 -1.992188 -1.582031 -1.953125 -1.78125 C -1.910156 -1.96875 -1.84375 -2.128906 -1.75 -2.265625 C -1.664062 -2.410156 -1.554688 -2.515625 -1.421875 -2.578125 C -1.296875 -2.640625 -1.148438 -2.65625 -0.984375 -2.625 C -0.960938 -2.613281 -0.9375 -2.601562 -0.90625 -2.59375 C -0.875 -2.59375 -0.84375 -2.585938 -0.8125 -2.578125 L 0.0625 -2.390625 C 0.113281 -2.378906 0.160156 -2.367188 0.203125 -2.359375 C 0.253906 -2.359375 0.296875 -2.359375 0.328125 -2.359375 C 0.378906 -2.347656 0.421875 -2.347656 0.453125 -2.359375 C 0.484375 -2.378906 0.507812 -2.394531 0.53125 -2.40625 L 0.4375 -1.96875 C 0.414062 -1.957031 0.390625 -1.945312 0.359375 -1.9375 C 0.335938 -1.925781 0.300781 -1.914062 0.25 -1.90625 C 0.21875 -1.90625 0.179688 -1.90625 0.140625 -1.90625 C 0.0976562 -1.914062 0.0507812 -1.925781 0 -1.9375 L 0.078125 -2 C 0.140625 -1.9375 0.191406 -1.859375 0.234375 -1.765625 C 0.273438 -1.679688 0.300781 -1.570312 0.3125 -1.4375 C 0.320312 -1.3125 0.3125 -1.175781 0.28125 -1.03125 Z M -0.078125 -1.21875 C -0.046875 -1.351562 -0.0390625 -1.472656 -0.0625 -1.578125 C -0.0820312 -1.691406 -0.125 -1.789062 -0.1875 -1.875 C -0.257812 -1.957031 -0.359375 -2.007812 -0.484375 -2.03125 L -0.84375 -2.109375 L -0.6875 -2.203125 C -0.675781 -2.097656 -0.671875 -1.976562 -0.671875 -1.84375 C -0.679688 -1.71875 -0.695312 -1.585938 -0.71875 -1.453125 C -0.75 -1.265625 -0.75 -1.113281 -0.71875 -1 C -0.6875 -0.894531 -0.613281 -0.832031 -0.5 -0.8125 C -0.394531 -0.789062 -0.304688 -0.8125 -0.234375 -0.875 C -0.160156 -0.945312 -0.109375 -1.0625 -0.078125 -1.21875 Z M -0.078125 -1.21875 "/></g></g></g><g fill="#ffffff" fill-opacity="1"><g transform="translate(8.056239, 16.839131)"><g><path d="M -2.734375 -2.03125 L 0.3125 -0.71875 L 0.125 -0.296875 L -2.921875 -1.609375 Z M -2.734375 -2.03125 "/></g></g></g><g fill="#ffffff" fill-opacity="1"><g transform="translate(9.032554, 14.795368)"><g><path d="M 0.171875 -0.265625 L -1.75 -1.453125 L -1.515625 -1.84375 L 0.40625 -0.65625 Z M 0.171875 -0.265625 "/></g></g></g><g fill="#ffffff" fill-opacity="1"><g transform="translate(10.232291, 12.941022)"><g><path d="M 1.09375 -0.890625 C 1.125 -0.929688 1.164062 -0.953125 1.21875 -0.953125 C 1.269531 -0.960938 1.320312 -0.96875 1.375 -0.96875 C 1.425781 -0.96875 1.476562 -0.941406 1.53125 -0.890625 C 1.601562 -0.828125 1.644531 -0.757812 1.65625 -0.6875 C 1.664062 -0.613281 1.648438 -0.535156 1.609375 -0.453125 C 1.578125 -0.367188 1.53125 -0.296875 1.46875 -0.234375 C 1.414062 -0.179688 1.351562 -0.128906 1.28125 -0.078125 C 1.21875 -0.0351562 1.175781 -0.015625 1.15625 -0.015625 L 1.078125 -0.203125 C 1.097656 -0.210938 1.132812 -0.226562 1.1875 -0.25 C 1.238281 -0.28125 1.289062 -0.320312 1.34375 -0.375 C 1.40625 -0.4375 1.441406 -0.5 1.453125 -0.5625 C 1.460938 -0.625 1.441406 -0.679688 1.390625 -0.734375 C 1.347656 -0.765625 1.304688 -0.78125 1.265625 -0.78125 C 1.234375 -0.78125 1.203125 -0.757812 1.171875 -0.71875 C 1.148438 -0.695312 1.128906 -0.671875 1.109375 -0.640625 C 1.085938 -0.609375 1.078125 -0.566406 1.078125 -0.515625 L 0.90625 -0.421875 L 0.734375 -0.78125 L 0.890625 -0.9375 L 1.03125 -0.625 L 1 -0.59375 C 0.988281 -0.625 0.988281 -0.664062 1 -0.71875 C 1.019531 -0.78125 1.050781 -0.835938 1.09375 -0.890625 Z M 0.828125 -0.84375 C 0.734375 -0.75 0.632812 -0.664062 0.53125 -0.59375 C 0.4375 -0.53125 0.335938 -0.484375 0.234375 -0.453125 C 0.128906 -0.421875 0.03125 -0.414062 -0.0625 -0.4375 C -0.15625 -0.457031 -0.242188 -0.507812 -0.328125 -0.59375 C -0.335938 -0.59375 -0.347656 -0.597656 -0.359375 -0.609375 C -0.367188 -0.617188 -0.375 -0.625 -0.375 -0.625 L -0.0625 -0.96875 C -0.0625 -0.96875 -0.0546875 -0.960938 -0.046875 -0.953125 C -0.046875 -0.953125 -0.0390625 -0.945312 -0.03125 -0.9375 C 0.0390625 -0.875 0.128906 -0.859375 0.234375 -0.890625 C 0.335938 -0.921875 0.445312 -1 0.5625 -1.125 C 0.625 -1.195312 0.675781 -1.265625 0.71875 -1.328125 C 0.757812 -1.398438 0.78125 -1.460938 0.78125 -1.515625 C 0.78125 -1.578125 0.753906 -1.628906 0.703125 -1.671875 C 0.628906 -1.742188 0.539062 -1.757812 0.4375 -1.71875 C 0.332031 -1.675781 0.203125 -1.59375 0.046875 -1.46875 C -0.046875 -1.394531 -0.132812 -1.328125 -0.21875 -1.265625 C -0.3125 -1.210938 -0.40625 -1.171875 -0.5 -1.140625 C -0.59375 -1.117188 -0.6875 -1.113281 -0.78125 -1.125 C -0.875 -1.144531 -0.960938 -1.191406 -1.046875 -1.265625 C -1.148438 -1.359375 -1.207031 -1.472656 -1.21875 -1.609375 C -1.226562 -1.742188 -1.203125 -1.878906 -1.140625 -2.015625 C -1.085938 -2.148438 -1.003906 -2.28125 -0.890625 -2.40625 C -0.773438 -2.53125 -0.648438 -2.628906 -0.515625 -2.703125 C -0.378906 -2.785156 -0.242188 -2.820312 -0.109375 -2.8125 C 0.0234375 -2.800781 0.148438 -2.75 0.265625 -2.65625 C 0.265625 -2.644531 0.265625 -2.632812 0.265625 -2.625 C 0.273438 -2.625 0.285156 -2.625 0.296875 -2.625 L -0.015625 -2.28125 C -0.0234375 -2.28125 -0.03125 -2.28125 -0.03125 -2.28125 C -0.0390625 -2.289062 -0.046875 -2.296875 -0.046875 -2.296875 C -0.0976562 -2.347656 -0.15625 -2.367188 -0.21875 -2.359375 C -0.289062 -2.359375 -0.359375 -2.335938 -0.421875 -2.296875 C -0.484375 -2.265625 -0.546875 -2.21875 -0.609375 -2.15625 C -0.660156 -2.101562 -0.707031 -2.039062 -0.75 -1.96875 C -0.789062 -1.90625 -0.8125 -1.84375 -0.8125 -1.78125 C -0.8125 -1.71875 -0.789062 -1.664062 -0.75 -1.625 C -0.6875 -1.570312 -0.625 -1.550781 -0.5625 -1.5625 C -0.507812 -1.570312 -0.441406 -1.601562 -0.359375 -1.65625 C -0.285156 -1.707031 -0.195312 -1.769531 -0.09375 -1.84375 C -0.0078125 -1.90625 0.078125 -1.960938 0.171875 -2.015625 C 0.265625 -2.078125 0.359375 -2.117188 0.453125 -2.140625 C 0.546875 -2.160156 0.640625 -2.164062 0.734375 -2.15625 C 0.828125 -2.144531 0.914062 -2.109375 1 -2.046875 C 1.09375 -1.960938 1.148438 -1.867188 1.171875 -1.765625 C 1.191406 -1.671875 1.191406 -1.566406 1.171875 -1.453125 C 1.160156 -1.347656 1.117188 -1.242188 1.046875 -1.140625 C 0.984375 -1.035156 0.910156 -0.9375 0.828125 -0.84375 Z M 0.828125 -0.84375 "/></g></g></g><g fill="#ffffff" fill-opacity="1"><g transform="translate(12.712827, 10.45915)"><g><path d="M 0.25 -0.1875 L -1.109375 -1.984375 L -0.75 -2.265625 L 0.609375 -0.46875 Z M 0.25 -0.1875 "/></g></g></g><g fill="#ffffff" fill-opacity="1"><g transform="translate(14.522107, 9.172799)"><g><path d="M 0.265625 -0.140625 L -0.78125 -2.140625 L -0.375 -2.359375 L -0.03125 -1.71875 L -0.171875 -1.703125 C -0.203125 -1.785156 -0.21875 -1.875 -0.21875 -1.96875 C -0.226562 -2.0625 -0.21875 -2.148438 -0.1875 -2.234375 C -0.164062 -2.316406 -0.125 -2.394531 -0.0625 -2.46875 C -0.0078125 -2.539062 0.0664062 -2.601562 0.171875 -2.65625 C 0.253906 -2.695312 0.328125 -2.722656 0.390625 -2.734375 C 0.453125 -2.753906 0.488281 -2.769531 0.5 -2.78125 L 0.609375 -2.34375 C 0.578125 -2.34375 0.539062 -2.335938 0.5 -2.328125 C 0.457031 -2.316406 0.40625 -2.296875 0.34375 -2.265625 C 0.238281 -2.210938 0.160156 -2.148438 0.109375 -2.078125 C 0.0664062 -2.003906 0.0390625 -1.925781 0.03125 -1.84375 C 0.0195312 -1.769531 0.0234375 -1.695312 0.046875 -1.625 C 0.0664062 -1.550781 0.09375 -1.472656 0.125 -1.390625 L 0.671875 -0.359375 Z M 0.265625 -0.140625 "/></g></g></g><g fill="#ffffff" fill-opacity="1"><g transform="translate(17.178604, 7.929047)"><g/></g></g><g fill="#ffffff" fill-opacity="1"><g transform="translate(19.319561, 7.320971)"><g/></g></g><g fill="#ffffff" fill-opacity="1"><g transform="translate(21.525627, 7.026457)"><g/></g></g><g fill="#ffffff" fill-opacity="1"><g transform="translate(23.733252, 7.027258)"><g><path d="M 0.328125 -1 L 0.375 -1.296875 L 1.859375 -1.078125 L 1.8125 -0.78125 Z M 0.328125 -1 "/></g></g></g><g fill="#ffffff" fill-opacity="1"><g transform="translate(26.80987, 7.621015)"><g/></g></g><g fill="#ffffff" fill-opacity="1"><g transform="translate(28.89533, 8.398392)"><g/></g></g><g fill="#ffffff" fill-opacity="1"><g transform="translate(30.845029, 9.414392)"><g><path d="M 0.96875 0.796875 C 0.800781 0.660156 0.675781 0.519531 0.59375 0.375 C 0.507812 0.226562 0.472656 0.078125 0.484375 -0.078125 C 0.492188 -0.242188 0.566406 -0.410156 0.703125 -0.578125 C 0.710938 -0.609375 0.722656 -0.628906 0.734375 -0.640625 C 0.753906 -0.660156 0.769531 -0.675781 0.78125 -0.6875 L 1.140625 -0.40625 C 1.128906 -0.394531 1.113281 -0.378906 1.09375 -0.359375 C 1.082031 -0.347656 1.070312 -0.332031 1.0625 -0.3125 C 0.945312 -0.15625 0.898438 -0.0078125 0.921875 0.125 C 0.953125 0.257812 1.046875 0.382812 1.203125 0.5 C 1.359375 0.625 1.5 0.6875 1.625 0.6875 C 1.757812 0.695312 1.875 0.640625 1.96875 0.515625 C 2.03125 0.429688 2.0625 0.335938 2.0625 0.234375 C 2.0625 0.140625 2.03125 0.0351562 1.96875 -0.078125 C 1.90625 -0.191406 1.828125 -0.304688 1.734375 -0.421875 C 1.628906 -0.566406 1.550781 -0.710938 1.5 -0.859375 C 1.445312 -1.003906 1.421875 -1.148438 1.421875 -1.296875 C 1.429688 -1.441406 1.488281 -1.582031 1.59375 -1.71875 C 1.695312 -1.863281 1.820312 -1.957031 1.96875 -2 C 2.113281 -2.039062 2.265625 -2.035156 2.421875 -1.984375 C 2.585938 -1.941406 2.753906 -1.859375 2.921875 -1.734375 C 3.085938 -1.609375 3.210938 -1.472656 3.296875 -1.328125 C 3.378906 -1.179688 3.414062 -1.023438 3.40625 -0.859375 C 3.40625 -0.703125 3.34375 -0.546875 3.21875 -0.390625 C 3.207031 -0.378906 3.191406 -0.363281 3.171875 -0.34375 C 3.160156 -0.320312 3.148438 -0.300781 3.140625 -0.28125 L 2.765625 -0.5625 C 2.773438 -0.582031 2.785156 -0.597656 2.796875 -0.609375 C 2.804688 -0.628906 2.816406 -0.644531 2.828125 -0.65625 C 2.941406 -0.8125 2.984375 -0.953125 2.953125 -1.078125 C 2.921875 -1.203125 2.828125 -1.320312 2.671875 -1.4375 C 2.515625 -1.550781 2.378906 -1.613281 2.265625 -1.625 C 2.148438 -1.632812 2.046875 -1.578125 1.953125 -1.453125 C 1.890625 -1.367188 1.863281 -1.28125 1.875 -1.1875 C 1.882812 -1.09375 1.914062 -0.988281 1.96875 -0.875 C 2.03125 -0.757812 2.101562 -0.632812 2.1875 -0.5 C 2.300781 -0.34375 2.382812 -0.191406 2.4375 -0.046875 C 2.5 0.0859375 2.519531 0.222656 2.5 0.359375 C 2.488281 0.492188 2.429688 0.628906 2.328125 0.765625 C 2.222656 0.910156 2.097656 1.007812 1.953125 1.0625 C 1.816406 1.113281 1.660156 1.113281 1.484375 1.0625 C 1.316406 1.019531 1.144531 0.929688 0.96875 0.796875 Z M 0.96875 0.796875 "/></g></g></g><g fill="#ffffff" fill-opacity="1"><g transform="translate(33.659533, 11.71729)"><g><path d="M 1.046875 -0.25 L 1.328125 -0.46875 L 2.359375 0.828125 L 2.25 0.84375 C 2.257812 0.84375 2.265625 0.835938 2.265625 0.828125 C 2.265625 0.828125 2.269531 0.820312 2.28125 0.8125 C 2.375 0.738281 2.441406 0.648438 2.484375 0.546875 C 2.523438 0.453125 2.535156 0.347656 2.515625 0.234375 C 2.492188 0.117188 2.441406 0.00390625 2.359375 -0.109375 C 2.265625 -0.222656 2.160156 -0.300781 2.046875 -0.34375 C 1.929688 -0.394531 1.804688 -0.40625 1.671875 -0.375 C 1.546875 -0.351562 1.414062 -0.289062 1.28125 -0.1875 C 1.15625 -0.09375 1.066406 0.0078125 1.015625 0.125 C 0.960938 0.25 0.945312 0.375 0.96875 0.5 C 0.988281 0.625 1.046875 0.75 1.140625 0.875 C 1.210938 0.957031 1.28125 1.023438 1.34375 1.078125 C 1.40625 1.128906 1.46875 1.160156 1.53125 1.171875 C 1.59375 1.179688 1.644531 1.179688 1.6875 1.171875 C 1.738281 1.171875 1.785156 1.164062 1.828125 1.15625 L 2.109375 1.515625 C 2.035156 1.554688 1.945312 1.582031 1.84375 1.59375 C 1.738281 1.613281 1.628906 1.609375 1.515625 1.578125 C 1.398438 1.554688 1.285156 1.507812 1.171875 1.4375 C 1.054688 1.363281 0.945312 1.253906 0.84375 1.109375 C 0.6875 0.921875 0.585938 0.726562 0.546875 0.53125 C 0.515625 0.332031 0.535156 0.140625 0.609375 -0.046875 C 0.691406 -0.234375 0.820312 -0.398438 1 -0.546875 C 1.175781 -0.691406 1.363281 -0.773438 1.5625 -0.796875 C 1.769531 -0.828125 1.96875 -0.800781 2.15625 -0.71875 C 2.34375 -0.644531 2.507812 -0.519531 2.65625 -0.34375 C 2.789062 -0.15625 2.875 0.03125 2.90625 0.21875 C 2.9375 0.40625 2.910156 0.585938 2.828125 0.765625 C 2.753906 0.953125 2.628906 1.117188 2.453125 1.265625 C 2.441406 1.273438 2.421875 1.289062 2.390625 1.3125 C 2.359375 1.34375 2.335938 1.359375 2.328125 1.359375 Z M 1.046875 -0.25 "/></g></g></g><g fill="#ffffff" fill-opacity="1"><g transform="translate(35.927581, 14.848502)"><g><path d="M 3.296875 -0.84375 L 0.359375 0.6875 L 0.15625 0.296875 L 3.09375 -1.234375 Z M 3.296875 -0.84375 "/></g></g></g><g fill="#ffffff" fill-opacity="1"><g transform="translate(36.895281, 16.895302)"><g><path d="M 3.375 -0.34375 L 0.25 0.734375 L 0.109375 0.3125 L 3.234375 -0.765625 Z M 3.375 -0.34375 "/></g></g></g><g fill="#ffffff" fill-opacity="1"><g transform="translate(37.568909, 19.040516)"><g><path d="M 0.171875 1.25 C 0.160156 1.175781 0.15625 1.097656 0.15625 1.015625 C 0.15625 0.941406 0.171875 0.875 0.203125 0.8125 C 0.242188 0.75 0.296875 0.691406 0.359375 0.640625 C 0.429688 0.585938 0.535156 0.550781 0.671875 0.53125 C 0.691406 0.53125 0.71875 0.523438 0.75 0.515625 C 0.78125 0.515625 0.8125 0.507812 0.84375 0.5 L 1.953125 0.328125 L 1.859375 -0.203125 L 2.234375 -0.265625 L 2.28125 0.015625 C 2.289062 0.078125 2.300781 0.125 2.3125 0.15625 C 2.320312 0.195312 2.335938 0.21875 2.359375 0.21875 C 2.378906 0.226562 2.410156 0.234375 2.453125 0.234375 C 2.503906 0.234375 2.566406 0.226562 2.640625 0.21875 L 3.0625 0.140625 L 3.125 0.59375 L 2.390625 0.71875 L 2.5 1.40625 L 2.125 1.46875 L 2.015625 0.78125 L 1.03125 0.9375 C 1 0.945312 0.96875 0.953125 0.9375 0.953125 C 0.914062 0.953125 0.890625 0.957031 0.859375 0.96875 C 0.753906 0.988281 0.671875 1.015625 0.609375 1.046875 C 0.554688 1.078125 0.539062 1.144531 0.5625 1.25 C 0.5625 1.289062 0.566406 1.328125 0.578125 1.359375 C 0.585938 1.398438 0.601562 1.429688 0.625 1.453125 L 0.25 1.515625 C 0.226562 1.492188 0.210938 1.457031 0.203125 1.40625 C 0.191406 1.363281 0.179688 1.3125 0.171875 1.25 Z M 0.171875 1.25 "/></g></g></g><g fill="#ffffff" fill-opacity="1"><g transform="translate(37.978524, 22.046245)"><g><path d="M 0.9375 0.53125 L 1.296875 0.546875 L 1.203125 2.203125 L 1.09375 2.140625 C 1.101562 2.140625 1.109375 2.140625 1.109375 2.140625 C 1.117188 2.140625 1.128906 2.140625 1.140625 2.140625 C 1.253906 2.148438 1.363281 2.128906 1.46875 2.078125 C 1.570312 2.035156 1.65625 1.960938 1.71875 1.859375 C 1.78125 1.765625 1.816406 1.644531 1.828125 1.5 C 1.828125 1.351562 1.800781 1.222656 1.75 1.109375 C 1.695312 1.003906 1.613281 0.914062 1.5 0.84375 C 1.382812 0.769531 1.242188 0.726562 1.078125 0.71875 C 0.921875 0.71875 0.78125 0.738281 0.65625 0.78125 C 0.539062 0.832031 0.445312 0.910156 0.375 1.015625 C 0.300781 1.128906 0.257812 1.265625 0.25 1.421875 C 0.25 1.523438 0.253906 1.617188 0.265625 1.703125 C 0.285156 1.785156 0.3125 1.851562 0.34375 1.90625 C 0.375 1.957031 0.410156 2 0.453125 2.03125 C 0.492188 2.0625 0.535156 2.082031 0.578125 2.09375 L 0.546875 2.546875 C 0.453125 2.523438 0.363281 2.484375 0.28125 2.421875 C 0.195312 2.367188 0.117188 2.289062 0.046875 2.1875 C -0.015625 2.09375 -0.0625 1.976562 -0.09375 1.84375 C -0.132812 1.71875 -0.144531 1.566406 -0.125 1.390625 C -0.113281 1.148438 -0.0546875 0.941406 0.046875 0.765625 C 0.160156 0.597656 0.304688 0.46875 0.484375 0.375 C 0.671875 0.289062 0.878906 0.253906 1.109375 0.265625 C 1.335938 0.285156 1.535156 0.351562 1.703125 0.46875 C 1.867188 0.582031 1.992188 0.726562 2.078125 0.90625 C 2.171875 1.09375 2.210938 1.300781 2.203125 1.53125 C 2.179688 1.757812 2.113281 1.957031 2 2.125 C 1.894531 2.289062 1.753906 2.414062 1.578125 2.5 C 1.398438 2.582031 1.195312 2.613281 0.96875 2.59375 C 0.945312 2.59375 0.914062 2.59375 0.875 2.59375 C 0.84375 2.59375 0.820312 2.59375 0.8125 2.59375 Z M 0.9375 0.53125 "/></g></g></g><g fill="#ffffff" fill-opacity="1"><g transform="translate(37.601064, 25.867982)"><g><path d="M -0.359375 1.765625 C -0.410156 1.867188 -0.460938 1.957031 -0.515625 2.03125 C -0.578125 2.113281 -0.65625 2.171875 -0.75 2.203125 C -0.84375 2.242188 -0.941406 2.25 -1.046875 2.21875 C -1.160156 2.175781 -1.25 2.097656 -1.3125 1.984375 C -1.375 1.878906 -1.40625 1.734375 -1.40625 1.546875 C -1.414062 1.359375 -1.378906 1.140625 -1.296875 0.890625 C -1.191406 0.546875 -1.054688 0.300781 -0.890625 0.15625 C -0.734375 0.0195312 -0.570312 -0.0195312 -0.40625 0.03125 C -0.351562 0.0390625 -0.304688 0.0546875 -0.265625 0.078125 C -0.222656 0.0976562 -0.195312 0.125 -0.1875 0.15625 L -0.359375 0.53125 C -0.367188 0.519531 -0.382812 0.503906 -0.40625 0.484375 C -0.425781 0.472656 -0.457031 0.457031 -0.5 0.4375 C -0.601562 0.40625 -0.691406 0.441406 -0.765625 0.546875 C -0.835938 0.660156 -0.910156 0.820312 -0.984375 1.03125 C -1.023438 1.1875 -1.050781 1.316406 -1.0625 1.421875 C -1.070312 1.523438 -1.066406 1.609375 -1.046875 1.671875 C -1.023438 1.734375 -0.988281 1.769531 -0.9375 1.78125 C -0.851562 1.800781 -0.789062 1.78125 -0.75 1.71875 C -0.707031 1.664062 -0.671875 1.59375 -0.640625 1.5 L -0.3125 0.703125 C -0.257812 0.566406 -0.179688 0.460938 -0.078125 0.390625 C 0.0234375 0.328125 0.132812 0.316406 0.25 0.359375 C 0.320312 0.378906 0.378906 0.414062 0.421875 0.46875 C 0.472656 0.519531 0.507812 0.570312 0.53125 0.625 C 0.5625 0.6875 0.578125 0.738281 0.578125 0.78125 L 0.328125 1.015625 C 0.335938 0.992188 0.332031 0.953125 0.3125 0.890625 C 0.289062 0.835938 0.257812 0.800781 0.21875 0.78125 C 0.164062 0.769531 0.113281 0.78125 0.0625 0.8125 C 0.0195312 0.84375 -0.0195312 0.910156 -0.0625 1.015625 Z M 1.515625 2.640625 L 1.40625 3.03125 L 0.625 2.59375 C 0.476562 2.519531 0.351562 2.425781 0.25 2.3125 C 0.144531 2.195312 0.078125 2.0625 0.046875 1.90625 C 0.015625 1.75 0.03125 1.570312 0.09375 1.375 C 0.164062 1.164062 0.257812 1 0.375 0.875 C 0.488281 0.75 0.625 0.660156 0.78125 0.609375 C 0.9375 0.566406 1.09375 0.566406 1.25 0.609375 C 1.414062 0.671875 1.550781 0.765625 1.65625 0.890625 C 1.757812 1.015625 1.820312 1.160156 1.84375 1.328125 C 1.875 1.503906 1.859375 1.6875 1.796875 1.875 C 1.742188 2.039062 1.671875 2.171875 1.578125 2.265625 C 1.492188 2.367188 1.394531 2.445312 1.28125 2.5 C 1.175781 2.550781 1.078125 2.566406 0.984375 2.546875 L 1.03125 2.40625 Z M 0.453125 1.46875 C 0.410156 1.59375 0.394531 1.703125 0.40625 1.796875 C 0.425781 1.890625 0.460938 1.96875 0.515625 2.03125 C 0.566406 2.101562 0.648438 2.160156 0.765625 2.203125 C 0.859375 2.234375 0.953125 2.234375 1.046875 2.203125 C 1.140625 2.179688 1.21875 2.132812 1.28125 2.0625 C 1.34375 2 1.390625 1.910156 1.421875 1.796875 C 1.460938 1.679688 1.476562 1.570312 1.46875 1.46875 C 1.457031 1.375 1.421875 1.289062 1.359375 1.21875 C 1.296875 1.144531 1.210938 1.085938 1.109375 1.046875 C 1.003906 1.015625 0.910156 1.015625 0.828125 1.046875 C 0.742188 1.078125 0.664062 1.128906 0.59375 1.203125 C 0.53125 1.273438 0.484375 1.363281 0.453125 1.46875 Z M 0.453125 1.46875 "/></g></g></g><g fill="#ffffff" fill-opacity="1"><g transform="translate(36.324843, 29.366158)"><g><path d="M -0.140625 0.25 L 1.8125 1.359375 L 1.578125 1.78125 L 0.953125 1.4375 L 1.0625 1.34375 C 1.125 1.394531 1.179688 1.457031 1.234375 1.53125 C 1.296875 1.613281 1.34375 1.695312 1.375 1.78125 C 1.40625 1.863281 1.410156 1.953125 1.390625 2.046875 C 1.378906 2.140625 1.347656 2.234375 1.296875 2.328125 C 1.242188 2.410156 1.195312 2.472656 1.15625 2.515625 C 1.113281 2.566406 1.085938 2.59375 1.078125 2.59375 L 0.75 2.296875 C 0.769531 2.296875 0.796875 2.28125 0.828125 2.25 C 0.859375 2.21875 0.894531 2.171875 0.9375 2.109375 C 0.988281 2.003906 1.015625 1.90625 1.015625 1.8125 C 1.023438 1.726562 1.007812 1.648438 0.96875 1.578125 C 0.9375 1.503906 0.890625 1.441406 0.828125 1.390625 C 0.773438 1.335938 0.710938 1.289062 0.640625 1.25 L -0.375 0.671875 Z M -0.140625 0.25 "/></g></g></g><g fill="#ffffff" fill-opacity="1"><g transform="translate(34.817237, 31.849453)"><g><path d="M -0.75 0.765625 C -0.632812 0.640625 -0.515625 0.546875 -0.390625 0.484375 C -0.273438 0.429688 -0.15625 0.410156 -0.03125 0.421875 C 0.09375 0.441406 0.207031 0.5 0.3125 0.59375 C 0.425781 0.695312 0.492188 0.8125 0.515625 0.9375 C 0.535156 1.0625 0.515625 1.191406 0.453125 1.328125 C 0.398438 1.460938 0.320312 1.609375 0.21875 1.765625 C 0.0507812 1.972656 -0.0546875 2.125 -0.109375 2.21875 C -0.160156 2.320312 -0.160156 2.394531 -0.109375 2.4375 C -0.0234375 2.519531 0.0664062 2.539062 0.171875 2.5 C 0.285156 2.46875 0.398438 2.382812 0.515625 2.25 C 0.640625 2.113281 0.710938 1.984375 0.734375 1.859375 C 0.765625 1.742188 0.726562 1.640625 0.625 1.546875 L 0.921875 1.203125 C 1.035156 1.304688 1.109375 1.429688 1.140625 1.578125 C 1.179688 1.734375 1.164062 1.890625 1.09375 2.046875 C 1.03125 2.203125 0.929688 2.359375 0.796875 2.515625 C 0.671875 2.648438 0.535156 2.753906 0.390625 2.828125 C 0.242188 2.910156 0.101562 2.945312 -0.03125 2.9375 C -0.164062 2.925781 -0.300781 2.863281 -0.4375 2.75 C -0.445312 2.738281 -0.460938 2.722656 -0.484375 2.703125 C -0.515625 2.679688 -0.539062 2.660156 -0.5625 2.640625 L -1.21875 2.03125 C -1.257812 2 -1.300781 1.96875 -1.34375 1.9375 C -1.394531 1.90625 -1.4375 1.882812 -1.46875 1.875 C -1.5 1.863281 -1.53125 1.851562 -1.5625 1.84375 C -1.601562 1.84375 -1.632812 1.835938 -1.65625 1.828125 L -1.34375 1.5 C -1.332031 1.5 -1.3125 1.5 -1.28125 1.5 C -1.257812 1.507812 -1.222656 1.519531 -1.171875 1.53125 C -1.140625 1.550781 -1.101562 1.570312 -1.0625 1.59375 C -1.03125 1.625 -0.992188 1.65625 -0.953125 1.6875 L -1.046875 1.703125 C -1.085938 1.617188 -1.097656 1.523438 -1.078125 1.421875 C -1.066406 1.328125 -1.035156 1.222656 -0.984375 1.109375 C -0.929688 0.992188 -0.851562 0.878906 -0.75 0.765625 Z M -0.53125 1.109375 C -0.625 1.203125 -0.691406 1.300781 -0.734375 1.40625 C -0.773438 1.519531 -0.785156 1.628906 -0.765625 1.734375 C -0.742188 1.835938 -0.6875 1.929688 -0.59375 2.015625 L -0.3125 2.265625 L -0.5 2.25 C -0.457031 2.15625 -0.398438 2.050781 -0.328125 1.9375 C -0.253906 1.832031 -0.175781 1.722656 -0.09375 1.609375 C 0.0195312 1.460938 0.0859375 1.332031 0.109375 1.21875 C 0.140625 1.113281 0.113281 1.023438 0.03125 0.953125 C -0.0390625 0.878906 -0.125 0.851562 -0.21875 0.875 C -0.320312 0.90625 -0.425781 0.984375 -0.53125 1.109375 Z M -0.53125 1.109375 "/></g></g></g><g fill="#ffffff" fill-opacity="1"><g transform="translate(32.184827, 34.496663)"><g/></g></g><g fill="#ffffff" fill-opacity="1"><g transform="translate(30.357493, 35.767218)"><g/></g></g><g fill="#ffffff" fill-opacity="1"><g transform="translate(28.366725, 36.762363)"><g/></g></g><g fill="#ffffff" fill-opacity="1"><g transform="translate(26.281198, 37.478877)"><g><path d="M 0.015625 1.0625 L 0.078125 1.359375 L -1.390625 1.640625 L -1.453125 1.34375 Z M 0.015625 1.0625 "/></g></g></g><g fill="#ffffff" fill-opacity="1"><g transform="translate(23.175907, 37.916548)"><g/></g></g><g fill="#ffffff" fill-opacity="1"><g transform="translate(20.951021, 37.858749)"><g/></g></g><g fill="#ffffff" fill-opacity="1"><g transform="translate(18.757462, 37.482243)"><g/></g></g></svg>