<svg xmlns="http://www.w3.org/2000/svg" xmlns:xlink="http://www.w3.org/1999/xlink" width="60" zoomAndPan="magnify" viewBox="0 0 45 44.999999" height="60" preserveAspectRatio="xMidYMid meet" version="1.0"><defs><clipPath id="4951c06e0c"><path d="M 2.042969 2.03125 L 42.957031 2.03125 L 42.957031 42.945312 L 2.042969 42.945312 Z M 2.042969 2.03125 " clip-rule="nonzero"/></clipPath><clipPath id="d78ed7eaa5"><path d="M 22.5 2.03125 C 11.203125 2.03125 2.042969 11.1875 2.042969 22.488281 C 2.042969 33.785156 11.203125 42.945312 22.5 42.945312 C 33.796875 42.945312 42.957031 33.785156 42.957031 22.488281 C 42.957031 11.1875 33.796875 2.03125 22.5 2.03125 Z M 22.5 2.03125 " clip-rule="nonzero"/></clipPath><clipPath id="54dff2f319"><path d="M 19.328125 15.214844 L 30.578125 15.214844 L 30.578125 29.464844 L 19.328125 29.464844 Z M 19.328125 15.214844 " clip-rule="nonzero"/></clipPath></defs><g clip-path="url(#4951c06e0c)"><g clip-path="url(#d78ed7eaa5)"><path fill="#e3000f" d="M 2.042969 2.03125 L 42.957031 2.03125 L 42.957031 42.945312 L 2.042969 42.945312 Z M 2.042969 2.03125 " fill-opacity="1" fill-rule="nonzero"/></g></g><g clip-path="url(#54dff2f319)"><path fill="#ffffff" d="M 19.328125 15.222656 L 19.328125 29.75 L 30.742188 22.484375 Z M 19.328125 15.222656 " fill-opacity="1" fill-rule="nonzero"/></g></svg>