<svg xmlns="http://www.w3.org/2000/svg" xmlns:xlink="http://www.w3.org/1999/xlink" width="60" zoomAndPan="magnify" viewBox="0 0 45 44.999999" height="60" preserveAspectRatio="xMidYMid meet" version="1.0"><path fill="#082664" d="M 42.519531 42.347656 L 33.101562 29.890625 C 33.582031 29.367188 34.03125 28.816406 34.441406 28.234375 C 34.851562 27.652344 35.226562 27.050781 35.5625 26.421875 C 35.894531 25.792969 36.191406 25.144531 36.441406 24.480469 C 36.695312 23.816406 36.90625 23.136719 37.070312 22.445312 C 37.238281 21.753906 37.359375 21.050781 37.4375 20.34375 C 37.515625 19.636719 37.546875 18.925781 37.535156 18.214844 C 37.523438 17.503906 37.464844 16.796875 37.363281 16.089844 C 37.261719 15.386719 37.113281 14.691406 36.921875 14.003906 C 36.734375 13.320312 36.5 12.648438 36.222656 11.992188 C 35.945312 11.335938 35.628906 10.699219 35.273438 10.082031 C 34.917969 9.46875 34.523438 8.875 34.089844 8.3125 C 33.65625 7.746094 33.191406 7.207031 32.691406 6.703125 C 32.191406 6.195312 31.660156 5.722656 31.101562 5.28125 C 30.542969 4.84375 29.957031 4.441406 29.34375 4.078125 C 28.734375 3.710938 28.101562 3.386719 27.449219 3.101562 C 26.796875 2.816406 26.128906 2.574219 25.445312 2.375 C 24.761719 2.175781 24.066406 2.019531 23.363281 1.910156 C 22.660156 1.796875 21.953125 1.730469 21.242188 1.707031 C 20.53125 1.6875 19.820312 1.710938 19.113281 1.777344 C 18.402344 1.847656 17.703125 1.957031 17.007812 2.117188 C 16.3125 2.273438 15.632812 2.472656 14.964844 2.71875 C 14.292969 2.960938 13.644531 3.25 13.011719 3.574219 C 12.378906 3.902344 11.769531 4.265625 11.183594 4.671875 C 10.597656 5.074219 10.039062 5.515625 9.507812 5.988281 C 8.980469 6.464844 8.480469 6.972656 8.015625 7.511719 C 7.550781 8.046875 7.117188 8.613281 6.726562 9.207031 C 6.332031 9.800781 5.976562 10.414062 5.660156 11.054688 C 5.34375 11.691406 5.070312 12.347656 4.835938 13.019531 C 4.605469 13.691406 4.414062 14.378906 4.269531 15.074219 C 4.125 15.769531 4.023438 16.472656 3.96875 17.183594 C 3.910156 17.894531 3.902344 18.605469 3.933594 19.316406 C 3.96875 20.027344 4.046875 20.734375 4.171875 21.433594 C 4.296875 22.136719 4.460938 22.824219 4.675781 23.503906 C 4.886719 24.183594 5.140625 24.847656 5.433594 25.496094 C 5.730469 26.144531 6.066406 26.769531 6.441406 27.375 C 6.816406 27.980469 7.230469 28.558594 7.679688 29.109375 C 8.125 29.664062 8.609375 30.1875 9.125 30.675781 C 9.640625 31.167969 10.183594 31.625 10.757812 32.046875 C 11.328125 32.46875 11.925781 32.855469 12.550781 33.199219 C 13.171875 33.546875 13.8125 33.851562 14.472656 34.117188 C 15.132812 34.382812 15.808594 34.605469 16.5 34.78125 C 17.1875 34.960938 17.886719 35.097656 18.589844 35.1875 C 19.296875 35.277344 20.007812 35.324219 20.71875 35.324219 C 21.429688 35.324219 22.140625 35.277344 22.847656 35.1875 C 23.550781 35.097656 24.25 34.964844 24.9375 34.785156 C 25.628906 34.609375 26.304688 34.386719 26.964844 34.121094 C 27.625 33.859375 28.265625 33.554688 28.890625 33.207031 C 29.511719 32.863281 30.109375 32.480469 30.683594 32.058594 L 39.941406 44.300781 C 40.070312 44.472656 40.230469 44.613281 40.414062 44.722656 C 40.601562 44.832031 40.800781 44.902344 41.015625 44.933594 C 41.226562 44.960938 41.4375 44.949219 41.648438 44.894531 C 41.855469 44.839844 42.046875 44.75 42.21875 44.621094 C 42.390625 44.488281 42.53125 44.332031 42.640625 44.144531 C 42.75 43.960938 42.820312 43.761719 42.851562 43.546875 C 42.878906 43.332031 42.867188 43.121094 42.8125 42.914062 C 42.761719 42.703125 42.667969 42.515625 42.539062 42.339844 Z M 6.640625 18.507812 C 6.640625 17.585938 6.730469 16.667969 6.910156 15.761719 C 7.089844 14.851562 7.359375 13.972656 7.710938 13.117188 C 8.066406 12.261719 8.5 11.449219 9.015625 10.679688 C 9.527344 9.910156 10.113281 9.199219 10.765625 8.542969 C 11.421875 7.890625 12.132812 7.304688 12.902344 6.792969 C 13.671875 6.277344 14.484375 5.84375 15.335938 5.488281 C 16.191406 5.136719 17.074219 4.867188 17.980469 4.6875 C 18.890625 4.507812 19.804688 4.417969 20.730469 4.417969 C 21.65625 4.417969 22.570312 4.507812 23.480469 4.6875 C 24.386719 4.867188 25.269531 5.132812 26.125 5.488281 C 26.976562 5.84375 27.789062 6.277344 28.558594 6.789062 C 29.328125 7.304688 30.039062 7.890625 30.695312 8.542969 C 31.347656 9.199219 31.933594 9.910156 32.449219 10.679688 C 32.960938 11.449219 33.394531 12.261719 33.75 13.113281 C 34.105469 13.96875 34.371094 14.851562 34.550781 15.757812 C 34.730469 16.667969 34.824219 17.582031 34.824219 18.507812 C 34.824219 19.433594 34.730469 20.351562 34.550781 21.257812 C 34.371094 22.164062 34.101562 23.046875 33.75 23.902344 C 33.394531 24.753906 32.960938 25.566406 32.445312 26.335938 C 31.933594 27.105469 31.347656 27.816406 30.695312 28.472656 C 30.039062 29.125 29.328125 29.710938 28.558594 30.222656 C 27.789062 30.738281 26.976562 31.171875 26.121094 31.527344 C 25.265625 31.878906 24.386719 32.148438 23.476562 32.328125 C 22.570312 32.507812 21.65625 32.597656 20.730469 32.597656 C 19.804688 32.597656 18.886719 32.507812 17.980469 32.328125 C 17.074219 32.148438 16.191406 31.878906 15.335938 31.527344 C 14.484375 31.171875 13.671875 30.738281 12.902344 30.222656 C 12.132812 29.710938 11.421875 29.125 10.765625 28.472656 C 10.113281 27.816406 9.527344 27.105469 9.015625 26.335938 C 8.5 25.566406 8.066406 24.753906 7.714844 23.902344 C 7.359375 23.046875 7.089844 22.164062 6.910156 21.257812 C 6.730469 20.351562 6.640625 19.433594 6.640625 18.507812 Z M 6.640625 18.507812 " fill-opacity="1" fill-rule="nonzero"/></svg>