<svg xmlns="http://www.w3.org/2000/svg" xmlns:xlink="http://www.w3.org/1999/xlink" width="60" zoomAndPan="magnify" viewBox="0 0 45 44.999999" height="60" preserveAspectRatio="xMidYMid meet" version="1.0"><defs><clipPath id="a03850ca36"><path d="M 0 27 L 45 27 L 45 43.480469 L 0 43.480469 Z M 0 27 " clip-rule="nonzero"/></clipPath><clipPath id="8a00eac79e"><path d="M 11 1.480469 L 33 1.480469 L 33 23 L 11 23 Z M 11 1.480469 " clip-rule="nonzero"/></clipPath></defs><g clip-path="url(#a03850ca36)"><path fill="#2f2f2f" d="M 44.996094 42.894531 C 44.597656 43.367188 44.078125 43.503906 43.472656 43.503906 C 29.570312 43.496094 15.664062 43.5 1.761719 43.488281 C 0.4375 43.488281 0.00390625 42.957031 0.234375 41.652344 C 0.871094 38.074219 2.8125 35.273438 5.59375 33.070312 C 10.230469 29.402344 15.609375 27.796875 21.464844 27.609375 C 25.5625 27.480469 29.558594 27.984375 33.378906 29.53125 C 39.007812 31.800781 43.429688 35.261719 44.996094 41.488281 C 44.996094 41.957031 44.996094 42.425781 44.996094 42.894531 Z M 44.996094 42.894531 " fill-opacity="1" fill-rule="nonzero"/></g><g clip-path="url(#8a00eac79e)"><path fill="#2f2f2f" d="M 22.046875 1.878906 C 27.398438 1.476562 32.710938 6.507812 32.578125 12.429688 C 32.445312 18.3125 27.835938 23.007812 21.949219 23 C 16.109375 22.992188 11.46875 18.242188 11.40625 12.335938 C 11.34375 6.628906 16.414062 1.476562 22.046875 1.878906 Z M 22.046875 1.878906 " fill-opacity="1" fill-rule="nonzero"/></g></svg>